<?xml version="1.0" standalone="no"?>
<!DOCTYPE svg PUBLIC "-//W3C//DTD SVG 20010904//EN"
 "http://www.w3.org/TR/2001/REC-SVG-20010904/DTD/svg10.dtd">
<svg version="1.0" xmlns="http://www.w3.org/2000/svg"
 width="800.000000pt" height="800.000000pt" viewBox="0 0 800.000000 800.000000"
 preserveAspectRatio="xMidYMid meet">
<metadata>
Created by potrace 1.14, written by Peter Selinger 2001-2017
</metadata>
<g transform="translate(0.000000,800.000000) scale(0.100000,-0.100000)"
fill="#000000" stroke="none">
<path d="M3870 6100 c-14 -5 -54 -16 -90 -26 -65 -16 -138 -52 -175 -87 -11
-10 -35 -28 -53 -39 -77 -48 -210 -242 -228 -335 -4 -18 -12 -33 -18 -34 -6 0
-41 0 -79 1 -68 1 -107 -5 -107 -19 0 -4 14 -23 30 -41 17 -18 30 -37 30 -42
0 -4 -38 -8 -85 -8 -96 0 -104 -8 -55 -56 16 -16 30 -35 30 -41 0 -10 -118
-13 -559 -13 -308 0 -562 -4 -565 -8 -2 -4 12 -29 32 -55 l36 -47 706 2 705 3
6 135 c4 93 11 149 24 180 39 99 72 155 131 219 130 140 317 197 515 157 177
-36 312 -147 393 -321 25 -54 37 -122 43 -242 l6 -133 703 0 703 0 35 44 c20
23 36 48 36 55 0 8 -145 11 -560 11 -308 0 -560 4 -560 8 0 5 13 26 30 48 16
21 30 42 30 47 0 4 -40 7 -90 7 -49 0 -90 4 -90 8 0 5 14 23 31 40 49 50 36
62 -68 62 l-88 0 -23 65 c-26 75 -72 154 -118 205 -18 19 -43 47 -56 61 -13
14 -39 36 -58 49 -19 13 -40 29 -45 35 -19 23 -135 75 -203 92 -76 18 -244 26
-282 13z"/>
<path d="M1495 4957 c-9 -22 0 -2771 9 -2790 8 -16 68 -17 1058 -17 905 0
1049 -2 1045 -14 -10 -26 13 -84 53 -135 64 -80 172 -121 325 -121 150 0 248
40 324 131 42 50 51 67 51 100 l0 39 1053 2 1052 3 3 1385 c1 762 0 1395 -3
1408 l-5 22 -228 -2 -227 -3 -3 -52 -3 -52 97 -3 97 -3 -1 -1115 c-1 -613 -2
-1170 -2 -1237 l0 -122 -807 -4 c-784 -3 -811 -4 -908 -25 -55 -12 -125 -34
-155 -49 l-55 -28 3 -57 c3 -48 0 -59 -20 -78 -41 -38 -121 -55 -258 -55 -135
1 -218 16 -264 48 -27 19 -28 23 -22 78 7 68 1 75 -100 110 -145 51 -154 52
-1016 56 l-808 4 0 1239 0 1240 90 0 90 0 0 55 0 55 -230 0 c-177 0 -232 -3
-235 -13z"/>
<path d="M2495 4054 c-54 -19 -75 -47 -75 -99 0 -57 25 -87 105 -124 69 -33
81 -54 47 -84 -22 -20 -83 -22 -100 -5 -7 7 -12 20 -12 30 0 15 -8 18 -46 18
l-46 0 6 -32 c8 -39 30 -64 78 -89 45 -23 74 -24 124 -3 51 21 72 41 90 82 12
29 12 38 0 60 -20 38 -54 67 -111 94 -55 25 -66 49 -39 79 25 28 77 25 100 -6
26 -35 84 -36 84 -2 0 76 -105 117 -205 81z"/>
<path d="M3975 4062 c-5 -4 -21 -27 -33 -52 -13 -25 -53 -101 -89 -170 -35
-69 -69 -129 -74 -135 -21 -22 -8 -35 34 -35 38 0 44 3 61 35 19 35 20 35 87
35 70 0 79 -6 79 -51 0 -16 7 -19 43 -19 l44 0 -9 63 c-5 34 -13 71 -18 82 -5
11 -14 63 -21 115 -7 52 -19 105 -27 118 -14 22 -56 30 -77 14z m34 -204 c1
-37 0 -38 -34 -38 -19 0 -35 4 -35 10 0 5 12 35 28 66 26 54 27 55 33 27 4
-15 7 -45 8 -65z"/>
<path d="M4301 4060 c-47 -11 -81 -49 -88 -97 -5 -36 -1 -45 32 -82 21 -23 52
-45 72 -50 20 -6 44 -18 54 -27 17 -15 17 -19 3 -45 -13 -25 -20 -29 -60 -29
-41 0 -46 3 -55 30 -10 26 -16 30 -50 30 -36 0 -39 -2 -39 -28 0 -49 82 -112
146 -112 34 0 112 38 129 63 21 30 19 99 -4 128 -10 13 -46 37 -80 53 -53 26
-61 33 -61 57 0 52 84 68 105 21 8 -19 16 -22 50 -20 36 3 40 5 37 28 -2 14
-8 27 -13 28 -5 2 -9 10 -9 17 0 16 -71 45 -108 44 -15 -1 -42 -5 -61 -9z"/>
<path d="M2081 3998 c-16 -83 -50 -298 -50 -320 -1 -14 7 -18 39 -18 38 0 40
2 40 30 0 45 38 120 61 120 5 0 24 -34 43 -75 l35 -75 40 0 c22 0 42 3 44 8 3
4 -18 54 -45 110 l-51 104 82 82 c44 45 81 85 81 89 0 4 -24 7 -54 7 -58 0
-49 7 -141 -103 -48 -58 -58 -56 -50 11 4 31 11 61 16 67 18 18 8 25 -35 25
l-43 0 -12 -62z"/>
<path d="M2767 4028 c-3 -18 -17 -100 -30 -183 -13 -82 -25 -157 -28 -165 -3
-12 5 -15 36 -15 l40 0 10 65 11 65 64 5 c71 6 133 31 155 64 17 24 20 118 5
147 -20 36 -63 49 -163 49 l-95 0 -5 -32z m189 -53 c14 -21 14 -30 4 -55 -16
-38 -37 -50 -90 -50 l-42 0 7 58 c4 31 9 60 12 65 2 4 24 7 48 7 36 0 48 -5
61 -25z"/>
<path d="M3116 4038 c-2 -13 -9 -48 -15 -78 -6 -30 -17 -90 -23 -132 -11 -74
-10 -78 12 -111 25 -37 80 -67 122 -67 37 0 107 40 135 77 21 27 28 55 41 155
9 68 19 125 24 126 4 2 8 15 8 28 0 21 -4 24 -40 24 -35 0 -40 -3 -45 -27 -3
-16 -10 -41 -14 -58 -5 -16 -15 -69 -21 -117 -14 -104 -35 -131 -96 -126 l-39
3 3 88 c1 49 6 96 11 105 5 9 12 43 15 75 l7 57 -40 0 c-34 0 -41 -4 -45 -22z"/>
<path d="M3616 4033 c-3 -16 -8 -50 -12 -78 -4 -27 -10 -54 -14 -60 -7 -10
-30 -171 -30 -213 0 -18 6 -22 29 -22 40 0 42 5 68 133 5 26 7 27 78 27 67 0
73 2 79 23 14 54 11 57 -68 57 l-74 0 5 43 c4 23 11 45 17 49 6 4 45 8 87 8
61 0 78 3 83 16 16 42 12 44 -118 44 l-124 0 -6 -27z"/>
<path d="M4540 4030 c0 -29 1 -30 51 -30 l52 0 -7 -71 c-4 -40 -11 -79 -16
-88 -14 -25 -30 -165 -21 -174 5 -5 24 -7 42 -5 l34 3 16 105 c8 58 18 112 21
120 4 8 9 36 13 62 l6 47 62 3 c59 3 62 4 65 31 l3 27 -160 0 -161 0 0 -30z"/>
<path d="M5020 4053 c0 -7 -9 -60 -52 -310 -13 -78 -7 -93 32 -93 35 0 43 15
54 95 12 88 9 85 87 85 74 0 90 -11 71 -47 -6 -10 -12 -43 -14 -73 -3 -55 -3
-55 28 -58 17 -2 35 3 41 10 6 7 18 60 26 118 9 58 23 139 31 180 21 106 22
102 -26 98 l-43 -3 -10 -75 -10 -75 -74 -3 -74 -3 7 81 7 80 -40 0 c-23 0 -41
-3 -41 -7z"/>
<path d="M5395 4048 c-2 -7 -9 -58 -15 -113 -6 -55 -16 -114 -22 -131 -23 -65
56 -152 139 -154 17 0 34 4 38 9 3 5 19 12 35 16 37 8 78 59 86 106 3 19 12
61 19 94 7 33 17 88 20 123 l7 62 -41 0 c-45 0 -42 5 -60 -105 -22 -135 -39
-199 -57 -212 -22 -16 -76 -17 -92 -1 -14 14 -16 90 -3 103 8 9 31 153 31 197
0 14 -8 18 -40 18 -24 0 -42 -5 -45 -12z"/>
<path d="M5760 4050 c0 -33 -32 -239 -40 -255 -5 -11 -11 -45 -12 -75 l-3 -55
107 1 c96 1 111 4 142 25 19 13 37 33 40 44 11 40 6 103 -9 115 -13 11 -11 17
15 47 41 46 41 94 1 134 -29 28 -32 29 -135 29 -62 0 -106 -4 -106 -10z m178
-89 c4 -42 -3 -49 -61 -57 l-47 -7 0 32 c0 56 15 73 63 69 40 -3 42 -5 45 -37z
m-10 -158 c5 -36 -39 -73 -88 -73 l-40 0 0 43 c0 24 3 47 7 51 4 4 32 6 63 4
48 -3 55 -6 58 -25z"/>
<path d="M2021 3521 c-19 -12 -28 -262 -12 -304 l11 -27 1992 2 1993 3 3 155
c2 136 1 156 -14 167 -14 10 -432 13 -1988 13 -1145 0 -1977 -4 -1985 -9z"/>
</g>
</svg>
